<svg width="83" height="44" viewBox="0 0 83 44" fill="none" xmlns="http://www.w3.org/2000/svg">
<g clip-path="url(#clip0_18323_58)">
<path d="M15.2592 31.8008L21.9129 25.113L28.5269 31.8008L31.6661 28.6427L25.0142 22.0004L31.6661 15.3534L28.5269 12.1953L21.9129 18.8395L15.344 12.1953L12.2012 15.3534L18.7737 22.0004L12.1182 28.6427L15.2592 31.8008Z" fill="white"/>
<path d="M72.8097 16.7206L69.6705 13.5625L59.1159 24.1673L52.5452 17.524L49.4023 20.6802L59.1159 30.4408L72.8097 16.7206Z" fill="white"/>
<path d="M21.8931 44C30.4861 44 37.9182 38.9867 41.4991 31.7291C45.0818 38.9867 52.5129 44 61.1069 44C73.1804 44 83 34.1329 83 22C83 9.86715 73.1804 0 61.1069 0C52.5139 0 45.0818 5.01327 41.4991 12.2709C37.9182 5.01327 30.4871 0 21.8931 0C9.8196 0 0 9.86715 0 22C0 34.1329 9.8196 44 21.8931 44ZM61.106 5.56093C70.1279 5.56093 77.4659 12.9344 77.4659 22.0009C77.4659 31.0674 70.1279 38.4409 61.106 38.4409C52.086 38.4409 44.7462 31.0674 44.7462 22.0009C44.7462 12.9344 52.086 5.56093 61.106 5.56093ZM21.8931 5.56093C30.9131 5.56093 38.2529 12.9344 38.2529 22.0009C38.2529 31.0674 30.9131 38.4409 21.8931 38.4409C12.8712 38.4409 5.53321 31.0674 5.53321 22.0009C5.53321 12.9344 12.8702 5.56093 21.8931 5.56093Z" fill="white"/>
</g>
<defs>
<clipPath id="clip0_18323_58">
<rect width="83" height="44" fill="white"/>
</clipPath>
</defs>
</svg>
